<?xml version="1.0" encoding="UTF-8" standalone="no" ?>
<!DOCTYPE svg PUBLIC "-//W3C//DTD SVG 1.1//EN" "http://www.w3.org/Graphics/SVG/1.1/DTD/svg11.dtd">
<svg xmlns="http://www.w3.org/2000/svg" xmlns:xlink="http://www.w3.org/1999/xlink" version="1.1" width="1080" height="1080" viewBox="0 0 1080 1080" xml:space="preserve">
<desc>Created with Fabric.js 5.2.4</desc>
<defs>
</defs>
<g transform="matrix(1 0 0 1 540 540)" id="2e4b7139-00fa-42b7-9cb3-8b1eae32ad60"  >
<rect style="stroke: none; stroke-width: 1; stroke-dasharray: none; stroke-linecap: butt; stroke-dashoffset: 0; stroke-linejoin: miter; stroke-miterlimit: 4; fill: rgb(255,255,255); fill-rule: nonzero; opacity: 1; visibility: hidden;" vector-effect="non-scaling-stroke"  x="-540" y="-540" rx="0" ry="0" width="1080" height="1080" />
</g>
<g transform="matrix(1 0 0 1 540 540)" id="3482ead7-5adb-4b87-9ab7-c66d2eed9543"  >
</g>
<g transform="matrix(1 0 0 1 540 540)"  >
<g style="" vector-effect="non-scaling-stroke"   >
		<g transform="matrix(1 0 0 1 0 0)"  >
<path style="stroke: none; stroke-width: 1; stroke-dasharray: none; stroke-linecap: butt; stroke-dashoffset: 0; stroke-linejoin: miter; stroke-miterlimit: 4; fill: rgb(194,212,196); fill-rule: nonzero; opacity: 1;" vector-effect="non-scaling-stroke"  transform=" translate(-720, -344)" d="M 0 36.881 C 0 33.3303 2.58925 30.3488 6.11694 29.9455 C 164.936 11.7855 420.849 0 709.5 0 C 1011.29 0 1277.3 12.8831 1433.97 32.4653 C 1437.46 32.902 1440 35.8667 1440 39.388 L 1440 681 C 1440 684.866 1436.87 688 1433 688 L 7.00001 688 C 3.13401 688 0 684.866 0 681 L 0 36.881 Z" stroke-linecap="round" />
</g>
		<g transform="matrix(1 0 0 1 0 0)"  >
<path style="stroke: none; stroke-width: 1; stroke-dasharray: none; stroke-linecap: butt; stroke-dashoffset: 0; stroke-linejoin: miter; stroke-miterlimit: 4; fill: rgb(194,212,196); fill-rule: nonzero; opacity: 1;" vector-effect="non-scaling-stroke"  transform=" translate(-720, -344)" d="M 0 36.881 C 0 33.3303 2.58925 30.3488 6.11694 29.9455 C 164.936 11.7855 420.849 0 709.5 0 C 1011.29 0 1277.3 12.8831 1433.97 32.4653 C 1437.46 32.902 1440 35.8667 1440 39.388 L 1440 681 C 1440 684.866 1436.87 688 1433 688 L 7.00001 688 C 3.13401 688 0 684.866 0 681 L 0 36.881 Z" stroke-linecap="round" />
</g>
</g>
</g>
<g transform="matrix(NaN NaN NaN NaN 0 0)"  >
<g style=""   >
</g>
</g>
</svg>